<?xml version="1.0" standalone="no"?>
<!DOCTYPE svg PUBLIC "-//W3C//DTD SVG 20010904//EN"
 "http://www.w3.org/TR/2001/REC-SVG-20010904/DTD/svg10.dtd">
<svg version="1.0" xmlns="http://www.w3.org/2000/svg"
 width="182.000000pt" height="55.000000pt" viewBox="0 0 182.000000 55.000000"
 preserveAspectRatio="xMidYMid meet">

<g transform="translate(0.000000,55.000000) scale(0.100000,-0.100000)"
fill="#000000" stroke="none">
<path d="M960 530 c0 -19 -7 -20 -95 -20 l-95 0 0 -60 0 -60 80 0 80 0 0 -90
c0 -89 0 -90 25 -90 l25 0 0 140 0 140 110 0 111 0 -3 -57 -3 -58 50 -13 c27
-7 57 -20 67 -29 17 -15 18 -14 18 13 0 47 44 127 90 167 l44 37 -252 0 c-245
0 -252 -1 -252 -20z"/>
<path d="M1695 531 c3 -11 -1 -24 -10 -31 -14 -11 -21 -11 -47 5 -19 11 -52
18 -84 19 -45 0 -59 -4 -91 -30 -98 -80 -96 -258 4 -365 70 -75 158 -89 268
-44 33 14 61 25 63 25 1 0 2 -9 2 -20 0 -25 -34 -47 -107 -70 l-58 -19 93 0
92 -1 0 275 0 275 -66 0 c-59 0 -65 -2 -59 -19z m-163 -170 c1 -33 2 -38 5
-16 4 31 5 31 63 31 58 0 59 -1 63 -31 3 -22 4 -19 5 14 1 25 9 52 18 63 16
17 18 17 31 -10 9 -17 17 -74 20 -149 l6 -123 -135 0 -135 0 4 103 c3 106 6
136 19 176 7 23 8 23 21 6 7 -11 14 -39 15 -64z"/>
<path d="M1511 410 c-5 -10 -11 -57 -17 -152 l-7 -98 119 0 119 0 -7 88 c-3
48 -7 102 -7 120 -1 17 -5 32 -10 32 -5 0 -9 -6 -8 -12 2 -58 -4 -78 -23 -78
-15 0 -20 7 -20 25 0 23 -4 25 -45 25 -41 0 -45 -2 -45 -25 0 -18 -5 -25 -19
-25 -17 0 -21 8 -24 53 -2 28 -5 50 -6 47z"/>
<path d="M1050 338 c0 -30 1 -31 19 -14 11 10 37 24 58 32 l38 13 -57 1 -58 0
0 -32z"/>
<path d="M1171 254 c-33 -23 -25 -34 24 -34 42 0 45 2 36 19 -15 27 -35 32
-60 15z"/>
<path d="M1150 158 c1 -30 18 -41 51 -33 19 3 60 9 92 12 66 6 74 -7 30 -49
-36 -35 -73 -48 -133 -48 -57 0 -91 11 -120 40 l-20 20 0 -40 c0 -39 -1 -40
-35 -40 -19 0 -35 -4 -35 -10 0 -6 99 -10 278 -9 230 0 271 3 243 13 -47 17
-108 71 -131 117 l-20 39 -100 0 c-73 0 -100 -3 -100 -12z"/>
</g>
</svg>
